<svg id="Layer_1" data-name="Layer 1" xmlns="http://www.w3.org/2000/svg" viewBox="0 0 30 30"><defs><style>.cls-1{fill:#6e943f;}.cls-2{fill:#09b7e3;}.cls-3{fill:#b5d066;}.cls-4{fill:#cee082;}</style></defs><path class="cls-1" d="M25.52,21.85c-1.86-.07-3.32-2-3.27-4.39s1.61-4.26,3.48-4.19,3.35,2,3.29,4.43S27.41,21.93,25.52,21.85Zm.05-2.68c.71,0,1.3-.63,1.34-1.53A1.54,1.54,0,0,0,25.69,16a1.44,1.44,0,0,0-1.32,1.52A1.51,1.51,0,0,0,25.57,19.17Z" transform="translate(-1 -1)"/><path class="cls-2" d="M19,7.31c1.57.05,2.76,1.63,2.73,3.62s-1.31,3.53-2.85,3.48-2.78-1.67-2.74-3.63S17.42,7.26,19,7.31Zm0,2.2a1.23,1.23,0,0,0-1.1,1.3,1.31,1.31,0,0,0,1,1.4A1.23,1.23,0,0,0,20,10.88,1.23,1.23,0,0,0,19,9.51Z" transform="translate(-1 -1)"/><path class="cls-1" d="M14.85,1c1.45.07,2.61,1.66,2.55,3.5s-1.29,3.28-2.73,3.24S12,6.12,12.09,4.23,13.37.94,14.85,1Zm.88,3.39a1.17,1.17,0,0,0-1-1.3,1.2,1.2,0,0,0-1,1.27,1.18,1.18,0,0,0,1,1.26C15.27,5.65,15.72,5.11,15.73,4.39Z" transform="translate(-1 -1)"/><path class="cls-3" d="M27,7.08c0,1.71-1.16,3-2.51,3s-2.37-1.5-2.34-3.16,1.17-3.05,2.5-3S27,5.37,27,7.08ZM24.52,8.13A1.07,1.07,0,0,0,25.45,7a1.06,1.06,0,0,0-.91-1.14c-.51,0-.91.48-.92,1.13A1,1,0,0,0,24.52,8.13Z" transform="translate(-1 -1)"/><path class="cls-2" d="M9,10.31c0,1.69-1.15,3-2.48,3s-2.38-1.44-2.35-3.13,1.14-3,2.5-3S9.05,8.62,9,10.31Zm-3.33-.1a1.07,1.07,0,0,0,.9,1.17,1,1,0,0,0,.93-1.12,1.06,1.06,0,0,0-.92-1.19A1,1,0,0,0,5.68,10.21Z" transform="translate(-1 -1)"/><path class="cls-2" d="M15.71,14.38C17,14.45,18,15.8,17.9,17.44s-1.14,2.83-2.39,2.75a2.72,2.72,0,0,1-2.18-3C13.39,15.55,14.45,14.32,15.71,14.38Zm.78,2.93a1,1,0,0,0-.84-1.12,1,1,0,0,0-.9,1.09,1,1,0,0,0,.85,1.11A1,1,0,0,0,16.49,17.31Z" transform="translate(-1 -1)"/><path class="cls-1" d="M10.35,18.36A2.48,2.48,0,0,1,8.27,15.6,2.45,2.45,0,0,1,10.42,13a2.51,2.51,0,0,1,2.11,2.79A2.42,2.42,0,0,1,10.35,18.36Zm.05-3.71a.92.92,0,0,0-.8,1,.91.91,0,0,0,.8,1,.91.91,0,0,0,.8-1A1,1,0,0,0,10.4,14.65Z" transform="translate(-1 -1)"/><path class="cls-3" d="M4.71,26.57A2.42,2.42,0,0,1,6.84,24a2.45,2.45,0,0,1,2,2.72c0,1.39-.87,2.57-2.12,2.55S4.68,28,4.71,26.57Zm2,1.07c.45,0,.81-.38.84-.93a.94.94,0,0,0-.72-1c-.44,0-.8.38-.83.94A.91.91,0,0,0,6.73,27.64Z" transform="translate(-1 -1)"/><path class="cls-2" d="M12,22a2.39,2.39,0,0,1,2,2.67,2.31,2.31,0,0,1-2.08,2.48,2.41,2.41,0,0,1-2-2.65A2.33,2.33,0,0,1,12,22Zm-.06,1.6a.87.87,0,0,0-.78.93.9.9,0,0,0,.76,1c.43,0,.76-.39.78-.93A.91.91,0,0,0,11.94,23.63Z" transform="translate(-1 -1)"/><path class="cls-4" d="M1.33,15.22a2.27,2.27,0,0,1,2.05-2.44c1,0,2,1.07,1.94,2.64,0,1.34-1,2.52-2.06,2.45A2.38,2.38,0,0,1,1.33,15.22Zm2.72.13c0-.55-.3-1-.73-1s-.73.42-.75.92a.85.85,0,0,0,.74,1C3.76,16.24,4,15.91,4.05,15.35Z" transform="translate(-1 -1)"/><path class="cls-2" d="M6.2,22.33a2.16,2.16,0,0,1-1.74-2.4,2.08,2.08,0,0,1,1.86-2.21A2.16,2.16,0,0,1,8.1,20.13,2.06,2.06,0,0,1,6.2,22.33Zm.09-3.17a.8.8,0,0,0-.71.85.85.85,0,0,0,.69.89c.38,0,.68-.37.69-.86A.78.78,0,0,0,6.29,19.16Z" transform="translate(-1 -1)"/><path class="cls-4" d="M28.2,13.09a2.12,2.12,0,0,1-1.73-2.39,2.13,2.13,0,0,1,1.86-2.23,2.19,2.19,0,0,1,1.78,2.46A2,2,0,0,1,28.2,13.09ZM29,10.81c0-.5-.25-.86-.62-.87s-.71.33-.72.87a.83.83,0,0,0,.65.87C28.63,11.69,29,11.29,29,10.81Z" transform="translate(-1 -1)"/><path class="cls-2" d="M20.05,6a2.1,2.1,0,0,1-1.67-2.36,2,2,0,0,1,1.85-2.09A2.11,2.11,0,0,1,21.9,3.93,2,2,0,0,1,20.05,6Zm.76-2.21A.77.77,0,0,0,20.16,3a.75.75,0,0,0-.69.8.79.79,0,0,0,.67.88A.77.77,0,0,0,20.81,3.81Z" transform="translate(-1 -1)"/><path class="cls-3" d="M9.79,9.49a1.86,1.86,0,0,1,1.7-2,2,2,0,0,1,1.57,2.17,1.9,1.9,0,0,1-1.68,2A1.93,1.93,0,0,1,9.79,9.49Zm1.62-.72a.76.76,0,0,0-.6.81.68.68,0,0,0,.63.74.7.7,0,0,0,.6-.78A.75.75,0,0,0,11.41,8.77Z" transform="translate(-1 -1)"/><path class="cls-2" d="M17.74,20.77a1.84,1.84,0,0,1,1.63-2,1.88,1.88,0,0,1,1.57,2.07,1.87,1.87,0,0,1-1.64,2A1.89,1.89,0,0,1,17.74,20.77Zm1.58.82a.73.73,0,0,0,.63-.77.74.74,0,0,0-.62-.78.8.8,0,0,0,0,1.55Z" transform="translate(-1 -1)"/><path class="cls-2" d="M9.64,2.93a1.72,1.72,0,0,1,1.45,1.9A1.73,1.73,0,0,1,9.61,6.66,1.75,1.75,0,0,1,8.15,4.72,1.67,1.67,0,0,1,9.64,2.93ZM9.58,5.5a.66.66,0,0,0,.6-.68.68.68,0,0,0-.54-.74c-.29,0-.55.28-.58.65A.69.69,0,0,0,9.58,5.5Z" transform="translate(-1 -1)"/><path class="cls-1" d="M5,23.39c0,.95-.65,1.69-1.39,1.65a1.59,1.59,0,0,1-1.29-1.78,1.53,1.53,0,0,1,1.38-1.62A1.57,1.57,0,0,1,5,23.39ZM3.7,22.7c-.3,0-.48.23-.51.61a.61.61,0,0,0,.49.67.59.59,0,0,0,.52-.65C4.17,23,4,22.74,3.7,22.7Z" transform="translate(-1 -1)"/><path class="cls-3" d="M14.38,22.77a1.58,1.58,0,0,1,1.35-1.67,1.62,1.62,0,0,1,1.34,1.73,1.55,1.55,0,0,1-1.42,1.68A1.57,1.57,0,0,1,14.38,22.77Zm1.27.67a.57.57,0,0,0,.57-.63.59.59,0,0,0-.49-.63c-.27,0-.51.27-.5.64S15.41,23.4,15.65,23.44Z" transform="translate(-1 -1)"/><path class="cls-4" d="M23.66,22.72a1.43,1.43,0,0,1-1.27,1.52c-.65,0-1.24-.81-1.21-1.65s.58-1.52,1.32-1.48S23.69,21.81,23.66,22.72Zm-1.21-.63c-.28,0-.47.17-.48.54s.18.59.45.6.44-.18.46-.52S22.74,22.13,22.45,22.09Z" transform="translate(-1 -1)"/><path class="cls-3" d="M20.19,14.86a1.42,1.42,0,0,1,1.2,1.58c0,.81-.6,1.54-1.23,1.52A1.49,1.49,0,0,1,19,16.36,1.42,1.42,0,0,1,20.19,14.86Zm.44,1.55c0-.33-.15-.55-.43-.57s-.46.2-.48.55a.52.52,0,0,0,.42.59C20.43,17,20.59,16.78,20.63,16.41Z" transform="translate(-1 -1)"/><path class="cls-2" d="M2.24,18.64A1.39,1.39,0,0,1,3.31,20.2c-.05.8-.62,1.42-1.24,1.35A1.42,1.42,0,0,1,1,20,1.29,1.29,0,0,1,2.24,18.64Zm-.09,2a.5.5,0,0,0,.44-.55c0-.34-.15-.57-.42-.57s-.44.21-.45.54A.52.52,0,0,0,2.15,20.66Z" transform="translate(-1 -1)"/><path class="cls-4" d="M13.88,14.15c-.64,0-1.08-.62-1.06-1.43A1.26,1.26,0,0,1,14,11.38a1.32,1.32,0,0,1,1.08,1.47A1.24,1.24,0,0,1,13.88,14.15Zm0-.88c.28,0,.44-.19.45-.5s-.14-.5-.39-.5-.42.17-.43.51A.41.41,0,0,0,13.89,13.27Z" transform="translate(-1 -1)"/><path class="cls-2" d="M29.86,16a1.28,1.28,0,0,1-1.05-1.4A1.26,1.26,0,0,1,30,13.25,1.29,1.29,0,0,1,31,14.66,1.23,1.23,0,0,1,29.86,16Zm.47-1.35c0-.33-.16-.53-.42-.53s-.41.18-.42.51.16.52.41.53S30.29,15,30.33,14.65Z" transform="translate(-1 -1)"/><path class="cls-2" d="M14.34,28.35A1.36,1.36,0,0,1,14.28,31a1.25,1.25,0,0,1-1-1.37A1.17,1.17,0,0,1,14.34,28.35Zm-.05,1.81a.42.42,0,0,0,.45-.44c0-.34-.15-.53-.41-.55s-.42.17-.43.47A.45.45,0,0,0,14.29,30.16Z" transform="translate(-1 -1)"/><path class="cls-2" d="M24.33,12a1.15,1.15,0,0,1-1.06,1.25,1.2,1.2,0,0,1-1-1.31,1.15,1.15,0,0,1,1.07-1.25A1.19,1.19,0,0,1,24.33,12Zm-.62,0c0-.3-.16-.48-.4-.48s-.37.18-.38.45.13.5.37.51S23.67,12.3,23.71,12Z" transform="translate(-1 -1)"/><path class="cls-1" d="M12.47,29c0,.72-.44,1.26-1,1.24a1.16,1.16,0,0,1-1-1.3,1.13,1.13,0,0,1,1-1.22A1.15,1.15,0,0,1,12.47,29Zm-.62,0c0-.28-.15-.44-.37-.44s-.37.16-.37.44.14.49.39.47S11.84,29.3,11.85,29Z" transform="translate(-1 -1)"/><path class="cls-2" d="M13.44,20.13a1.12,1.12,0,0,1-1,1.21,1.15,1.15,0,0,1-1-1.27,1.14,1.14,0,0,1,1-1.22A1.15,1.15,0,0,1,13.44,20.13Zm-.61,0c0-.3-.14-.47-.36-.47s-.38.16-.38.45.14.48.38.48S12.81,20.38,12.83,20.1Z" transform="translate(-1 -1)"/><path class="cls-2" d="M9.57,23.1a1,1,0,0,1-1,1.09A1.1,1.1,0,0,1,7.74,23c0-.62.46-1.13.95-1.1A1.1,1.1,0,0,1,9.57,23.1Zm-.89-.5c-.2,0-.33.12-.35.4s.08.45.29.47.38-.13.39-.42A.39.39,0,0,0,8.68,22.6Z" transform="translate(-1 -1)"/><path class="cls-3" d="M7.67,15.72c0,.66-.47,1.15-1,1.1a1.16,1.16,0,0,1-.86-1.23c0-.64.49-1.16,1-1.12A1.08,1.08,0,0,1,7.67,15.72Zm-.94.34c.2,0,.35-.11.37-.37s-.12-.48-.33-.49-.34.13-.35.41S6.51,16,6.73,16.06Z" transform="translate(-1 -1)"/><path class="cls-3" d="M8.93,20.3c0-.64.37-1,.88-1a1,1,0,0,1,.83,1.1c0,.59-.45,1.09-.89,1.05A1,1,0,0,1,8.93,20.3Zm.84.45a.36.36,0,0,0,.32-.39c0-.24-.1-.42-.29-.42s-.32.12-.32.38A.37.37,0,0,0,9.77,20.75Z" transform="translate(-1 -1)"/><path class="cls-2" d="M15.35,9.64a1,1,0,0,1-.8,1,.93.93,0,0,1-.8-1,.92.92,0,0,1,.79-1A1,1,0,0,1,15.35,9.64Zm-.5-.06c0-.2-.11-.34-.3-.34s-.32.14-.31.39.14.39.33.37S14.84,9.84,14.85,9.58Z" transform="translate(-1 -1)"/><path class="cls-4" d="M6.72,6.42c-.48,0-.78-.43-.77-1s.39-1,.81-1a1,1,0,0,1,.8,1.06A.94.94,0,0,1,6.72,6.42Zm.32-1c0-.2-.12-.35-.3-.34s-.31.15-.3.4.15.35.31.33S7,5.65,7,5.39Z" transform="translate(-1 -1)"/><path class="cls-2" d="M10.18,28.67c0,.47-.35.85-.72.82a.84.84,0,0,1-.66-.91.79.79,0,0,1,.73-.83A.84.84,0,0,1,10.18,28.67Zm-.7.31a.31.31,0,0,0,.28-.33c0-.22-.08-.35-.24-.37s-.29.11-.29.34A.32.32,0,0,0,9.48,29Z" transform="translate(-1 -1)"/><path class="cls-2" d="M18.25,24.78a.76.76,0,0,1-.6-.8.72.72,0,0,1,.66-.77.76.76,0,0,1,.58.82A.72.72,0,0,1,18.25,24.78Zm0-.49A.26.26,0,0,0,18.5,24a.24.24,0,0,0-.22-.27c-.15,0-.23.11-.23.3A.26.26,0,0,0,18.27,24.29Z" transform="translate(-1 -1)"/><path class="cls-2" d="M15.59,26.37a.71.71,0,0,1-.62.77.7.7,0,0,1-.61-.78c0-.44.28-.78.62-.77A.72.72,0,0,1,15.59,26.37Zm-.38,0c0-.19-.09-.3-.24-.3s-.22.08-.24.24.07.31.22.33S15.18,26.57,15.21,26.38Z" transform="translate(-1 -1)"/></svg>